<svg
  width="210"
  height="62"
  viewBox="0 0 210 62"
  fill="none"
  xmlns="http://www.w3.org/2000/svg"
>
  <path
    d="M43.9491 31.3497L15.9491 61.3497C15.7676 61.555 15.5443 61.7192 15.2943 61.8313C15.0442 61.9434 14.7731 62.0008 14.4991 61.9997C14.1776 61.9965 13.8611 61.9195 13.5741 61.7747C13.1933 61.5693 12.8883 61.2472 12.7038 60.8558C12.5194 60.4644 12.4651 60.0242 12.5491 59.5997L16.1991 41.2747L1.79908 35.8747C1.49141 35.7553 1.21711 35.5635 0.999485 35.3154C0.781861 35.0673 0.62735 34.7703 0.549081 34.4497C0.473014 34.128 0.47893 33.7923 0.566288 33.4734C0.653646 33.1546 0.819651 32.8627 1.04908 32.6247L29.0491 2.62471C29.348 2.31842 29.7372 2.11607 30.1596 2.0474C30.582 1.97873 31.0153 2.04737 31.3958 2.24321C31.7763 2.43906 32.084 2.7518 32.2736 3.13546C32.4631 3.51913 32.5247 3.95349 32.4491 4.37471L28.7991 22.7247L43.1991 28.1247C43.5082 28.2369 43.7845 28.4246 44.0027 28.6707C44.2209 28.9168 44.3743 29.2134 44.4488 29.5338C44.5233 29.8541 44.5166 30.188 44.4293 30.5052C44.3421 30.8223 44.177 31.1126 43.9491 31.3497Z"
    fill="#0CA4A5"
  />
  <path
    d="M66.5 48.9987V16.4887H73.8337V20.6275C74.7586 18.9809 76.124 17.7348 77.9299 16.8892C79.7358 15.9991 81.5417 15.5541 83.3476 15.5541C85.4618 15.5541 87.3778 16.0436 89.0956 17.0227C90.8134 17.9573 92.1127 19.3814 92.9936 21.2951C94.271 19.1589 95.7906 17.668 97.5524 16.8224C99.3583 15.9769 101.318 15.5541 103.433 15.5541C104.886 15.5541 106.296 15.7988 107.661 16.2884C109.026 16.7779 110.238 17.5345 111.295 18.5581C112.352 19.5372 113.189 20.8055 113.805 22.3632C114.466 23.9208 114.796 25.7677 114.796 27.9039V48.9987H107.397V29.1722C107.397 27.2586 106.89 25.6787 105.877 24.4326C104.908 23.142 103.344 22.4967 101.186 22.4967C99.1601 22.4967 97.5304 23.2087 96.2971 24.6328C95.1078 26.0125 94.5132 27.7036 94.5132 29.7063V48.9987H86.9814V29.1722C86.9814 27.3031 86.4969 25.7232 85.5279 24.4326C84.5588 23.142 82.9732 22.4967 80.7709 22.4967C78.7007 22.4967 77.071 23.1865 75.8818 24.5661C74.6925 25.9012 74.0979 27.6146 74.0979 29.7063V48.9987H66.5Z"
    fill="#002147"
  />
  <path
    d="M119.363 40.1869C119.363 38.7183 119.605 37.4277 120.09 36.3151C120.618 35.2025 121.301 34.2457 122.138 33.4446C123.019 32.599 124.054 31.9315 125.243 31.4419C126.432 30.9524 127.71 30.5964 129.075 30.3738L137.334 29.1055C138.259 28.972 138.875 28.7049 139.184 28.3044C139.536 27.8594 139.712 27.3476 139.712 26.769C139.712 25.3894 139.228 24.2323 138.259 23.2977C137.29 22.3186 135.748 21.8291 133.634 21.8291C131.608 21.8291 130.044 22.4077 128.943 23.5648C127.842 24.6773 127.203 26.057 127.027 27.7036L120.024 26.1015C120.156 24.7219 120.574 23.3867 121.279 22.0961C121.984 20.8055 122.909 19.6707 124.054 18.6916C125.199 17.7125 126.564 16.9337 128.15 16.3551C129.78 15.7766 131.586 15.4873 133.568 15.4873C136.034 15.4873 138.126 15.8211 139.844 16.4887C141.606 17.1562 143.016 18.0463 144.073 19.1589C145.174 20.2715 145.967 21.5621 146.451 23.0307C146.98 24.4993 147.244 26.0347 147.244 27.6369V43.7917C147.244 45.2603 147.288 46.462 147.376 47.3965C147.508 48.2866 147.596 48.8207 147.64 48.9987H140.505C140.461 48.9097 140.395 48.5314 140.307 47.8638C140.219 47.1518 140.175 46.1504 140.175 44.8598C139.426 46.1059 138.237 47.2853 136.607 48.3979C134.977 49.466 132.863 50 130.264 50C128.591 50 127.071 49.733 125.706 49.1989C124.384 48.6649 123.239 47.9528 122.27 47.0628C121.345 46.1282 120.618 45.0823 120.09 43.9252C119.605 42.7236 119.363 41.4775 119.363 40.1869ZM131.718 43.9252C132.775 43.9252 133.788 43.7917 134.757 43.5247C135.726 43.2132 136.563 42.7459 137.268 42.1228C138.016 41.4553 138.611 40.5875 139.051 39.5194C139.492 38.4513 139.712 37.1162 139.712 35.514V34.0454L131.321 35.3138C130.132 35.5363 129.119 36.0036 128.282 36.7156C127.445 37.3832 127.027 38.3845 127.027 39.7196C127.027 40.8322 127.423 41.8113 128.216 42.6569C129.009 43.5024 130.176 43.9252 131.718 43.9252Z"
    fill="#002147"
  />
  <path
    d="M170.202 48.9987H162.538L149.456 16.4887H157.913L166.436 39.7196L174.761 16.4887H182.821L170.202 48.9987Z"
    fill="#002147"
  />
  <path
    d="M186.258 48.9987V16.4887H193.856V48.9987H186.258ZM185.068 5.07343C185.068 3.64931 185.553 2.44771 186.522 1.46863C187.491 0.489542 188.658 0 190.024 0C191.433 0 192.622 0.489542 193.591 1.46863C194.56 2.44771 195.045 3.64931 195.045 5.07343C195.045 6.49755 194.56 7.69915 193.591 8.67824C192.622 9.61282 191.433 10.0801 190.024 10.0801C188.658 10.0801 187.491 9.61282 186.522 8.67824C185.553 7.69915 185.068 6.49755 185.068 5.07343Z"
    fill="#002147"
  />
  <path
    d="M200.713 48.9987V16.4887H208.311V48.9987H200.713ZM199.524 5.07343C199.524 3.64931 200.008 2.44771 200.977 1.46863C201.946 0.489542 203.113 0 204.479 0C205.888 0 207.077 0.489542 208.046 1.46863C209.016 2.44771 209.5 3.64931 209.5 5.07343C209.5 6.49755 209.016 7.69915 208.046 8.67824C207.077 9.61282 205.888 10.0801 204.479 10.0801C203.113 10.0801 201.946 9.61282 200.977 8.67824C200.008 7.69915 199.524 6.49755 199.524 5.07343Z"
    fill="#002147"
  />
</svg>