<svg width="79" height="23" viewBox="0 0 79 23" fill="none" xmlns="http://www.w3.org/2000/svg">
<style>
  @media (prefers-color-scheme: dark) {
    .wordmark {
      fill: #DFE4F0;
    }
  }
</style>
<path d="M26.7461 19.9998V8.31179H29.4101V9.79979C29.7461 9.20779 30.2421 8.75979 30.8981 8.45579C31.5541 8.13579 32.2101 7.97579 32.8661 7.97579C33.6341 7.97579 34.3301 8.15179 34.9541 8.50379C35.5781 8.83979 36.0501 9.35179 36.3701 10.0398C36.8341 9.27179 37.3861 8.73579 38.0261 8.43179C38.6821 8.12779 39.3941 7.97579 40.1621 7.97579C40.6901 7.97579 41.2021 8.06379 41.6981 8.23979C42.1941 8.41579 42.6341 8.68779 43.0181 9.05579C43.4021 9.40779 43.7061 9.86379 43.9301 10.4238C44.1701 10.9838 44.2901 11.6478 44.2901 12.4158V19.9998H41.6021V12.8718C41.6021 12.1838 41.4181 11.6158 41.0501 11.1678C40.6981 10.7038 40.1301 10.4718 39.3461 10.4718C38.6101 10.4718 38.0181 10.7278 37.5701 11.2398C37.1381 11.7358 36.9221 12.3438 36.9221 13.0638V19.9998H34.1861V12.8718C34.1861 12.1998 34.0101 11.6318 33.6581 11.1678C33.3061 10.7038 32.7301 10.4718 31.9301 10.4718C31.1781 10.4718 30.5861 10.7198 30.1541 11.2158C29.7221 11.6958 29.5061 12.3118 29.5061 13.0638V19.9998H26.7461Z" fill="#1C1E29" class="wordmark"/>
<path d="M45.9489 16.8318C45.9489 16.3038 46.0369 15.8398 46.2129 15.4398C46.4049 15.0398 46.6529 14.6958 46.9569 14.4078C47.2769 14.1038 47.6529 13.8638 48.0849 13.6878C48.5169 13.5118 48.9809 13.3838 49.4769 13.3038L52.4769 12.8478C52.8129 12.7998 53.0369 12.7038 53.1489 12.5598C53.2769 12.3998 53.3409 12.2158 53.3409 12.0078C53.3409 11.5118 53.1649 11.0958 52.8129 10.7598C52.4609 10.4078 51.9009 10.2318 51.1329 10.2318C50.3969 10.2318 49.8289 10.4398 49.4289 10.8558C49.0289 11.2558 48.7969 11.7518 48.7329 12.3438L46.1889 11.7678C46.2369 11.2718 46.3889 10.7918 46.6449 10.3278C46.9009 9.86379 47.2369 9.45579 47.6529 9.10379C48.0689 8.75179 48.5649 8.47179 49.1409 8.26379C49.7329 8.05579 50.3889 7.95179 51.1089 7.95179C52.0049 7.95179 52.7649 8.07179 53.3889 8.31179C54.0289 8.55179 54.5409 8.87179 54.9249 9.27179C55.3249 9.67179 55.6129 10.1358 55.7889 10.6638C55.9809 11.1918 56.0769 11.7438 56.0769 12.3198V18.1278C56.0769 18.6558 56.0929 19.0878 56.1249 19.4238C56.1729 19.7438 56.2049 19.9358 56.2209 19.9998H53.6289C53.6129 19.9678 53.5889 19.8318 53.5569 19.5918C53.5249 19.3358 53.5089 18.9758 53.5089 18.5118C53.2369 18.9598 52.8049 19.3838 52.2129 19.7838C51.6209 20.1678 50.8529 20.3598 49.9089 20.3598C49.3009 20.3598 48.7489 20.2638 48.2529 20.0718C47.7729 19.8798 47.3569 19.6238 47.0049 19.3038C46.6689 18.9678 46.4049 18.5918 46.2129 18.1758C46.0369 17.7438 45.9489 17.2958 45.9489 16.8318ZM50.4369 18.1758C50.8209 18.1758 51.1889 18.1278 51.5409 18.0318C51.8929 17.9198 52.1969 17.7518 52.4529 17.5278C52.7249 17.2878 52.9409 16.9758 53.1009 16.5918C53.2609 16.2078 53.3409 15.7278 53.3409 15.1518V14.6238L50.2929 15.0798C49.8609 15.1598 49.4929 15.3278 49.1889 15.5838C48.8849 15.8238 48.7329 16.1838 48.7329 16.6638C48.7329 17.0638 48.8769 17.4158 49.1649 17.7198C49.4529 18.0238 49.8769 18.1758 50.4369 18.1758Z" fill="#1C1E29" class="wordmark"/>
<path d="M64.4165 19.9998H61.6325L56.8805 8.31179H59.9525L63.0485 16.6638L66.0725 8.31179H69.0005L64.4165 19.9998Z" fill="#1C1E29" class="wordmark"/>
<path d="M70.2489 19.9998V8.31179H73.0089V19.9998H70.2489ZM69.8169 4.20779C69.8169 3.69579 69.9929 3.26379 70.3449 2.91179C70.6969 2.55979 71.1209 2.38379 71.6169 2.38379C72.1289 2.38379 72.5609 2.55979 72.9129 2.91179C73.2649 3.26379 73.4409 3.69579 73.4409 4.20779C73.4409 4.71979 73.2649 5.15179 72.9129 5.50379C72.5609 5.83979 72.1289 6.00779 71.6169 6.00779C71.1209 6.00779 70.6969 5.83979 70.3449 5.50379C69.9929 5.15179 69.8169 4.71979 69.8169 4.20779Z" fill="#1C1E29" class="wordmark"/>
<path d="M75.4998 19.9998V8.31179H78.2598V19.9998H75.4998ZM75.0678 4.20779C75.0678 3.69579 75.2438 3.26379 75.5958 2.91179C75.9478 2.55979 76.3718 2.38379 76.8678 2.38379C77.3798 2.38379 77.8118 2.55979 78.1638 2.91179C78.5158 3.26379 78.6918 3.69579 78.6918 4.20779C78.6918 4.71979 78.5158 5.15179 78.1638 5.50379C77.8118 5.83979 77.3798 6.00779 76.8678 6.00779C76.3718 6.00779 75.9478 5.83979 75.5958 5.50379C75.2438 5.15179 75.0678 4.71979 75.0678 4.20779Z" fill="#1C1E29" class="wordmark"/>
<path d="M16.2097 11.2664L6.14717 22.0476C6.08194 22.1214 6.00171 22.1804 5.91185 22.2207C5.82198 22.261 5.72455 22.2816 5.62607 22.2812C5.51054 22.2801 5.39681 22.2524 5.29365 22.2004C5.1568 22.1265 5.04719 22.0108 4.98091 21.8701C4.91462 21.7295 4.89512 21.5713 4.92529 21.4187L6.23701 14.8332L1.06201 12.8926C0.951443 12.8497 0.852865 12.7807 0.774656 12.6916C0.696448 12.6024 0.64092 12.4957 0.612792 12.3805C0.585456 12.2648 0.587582 12.1442 0.618976 12.0296C0.65037 11.915 0.710028 11.8101 0.79248 11.7246L10.855 0.943347C10.9624 0.833273 11.1023 0.760554 11.2541 0.735876C11.4059 0.711199 11.5616 0.735864 11.6983 0.806247C11.8351 0.87663 11.9456 0.98902 12.0138 1.1269C12.0819 1.26478 12.104 1.42088 12.0769 1.57225L10.7651 8.16678L15.9401 10.1074C16.0512 10.1477 16.1505 10.2152 16.2289 10.3036C16.3074 10.3921 16.3625 10.4987 16.3892 10.6138C16.416 10.7289 16.4136 10.8489 16.3823 10.9629C16.3509 11.0768 16.2916 11.1812 16.2097 11.2664Z" fill="#0CA4A5"/>
</svg>
